# xmcd
# 
# Track frame offsets:
#   150
#   16861
#   35776
#   49420
#   67387
#   85132
#   102823
#   122632
#   138158
#   153395
#   168756
#   183854
#   205519
#   221886
#   238412
# 
# Disc length: 3362 seconds
# 
# Revision: 2
# Processed by: cddbd v1.5.2PL0 Copyright (c) Steve Scherf et al.
# Submitted via: Synapstar 1.0 
# 
DISCID=d30d200f
DTITLE=Various Artist - Cb 60379
DYEAR=2008
DGENRE=Country
TTITLE0=Sugarland - All I Want To Do
TTITLE1=Little Big Town - Fine Line
TTITLE2=George Strait - Troubadour
TTITLE3=Craig Morgan - Love Remembers
TTITLE4=Sara Evans - Love You With All My Heart
TTITLE5=Taylor Swift - Should've Said No
TTITLE6=Keith Urban - Tu Compania
TTITLE7=Kellie Pickler - Don't You Know You're Beautiful
TTITLE8=Randy Houser - Anything Goes
TTITLE9=Lee Ann Womack - Last Call
TTITLE10=Lady Antebellum - Lookin' For A Good Time
TTITLE11=Brad Paisley - Waitin' On A Woman
TTITLE12=James Otto - For You
TTITLE13=Ashton Shepherd - Sounds So Good
TTITLE14=Jessica Simpson - Come On Over
EXTD=MediaType: Karaoke CD+G Producer: chartbuster
EXTT0=
EXTT1=
EXTT2=
EXTT3=
EXTT4=
EXTT5=
EXTT6=
EXTT7=
EXTT8=
EXTT9=
EXTT10=
EXTT11=
EXTT12=
EXTT13=
EXTT14=
PLAYORDER=
